# xmcd CD database file
#
# Track frame offsets:
#	182
#	37332
#	67352
#	121495
#	179582
#	202667
#	227332
#	234872
#	271157
#	288992
#	307377
#
# Disc length: 4462 seconds
#
# Revision: 0
# Processed by: cddbd v1.4PL0 Copyright (c) Steve Scherf et al.
# Submitted via: CDex 1.50
#
DISCID=a3116c0b
DTITLE=Christy Doran and Fredy Studer - Half A Lifetime - Disc A
DYEAR=1994
DGENRE=Jazz
TTITLE0=Collage
TTITLE1=Blind Willie
TTITLE2=If 6 Was 9
TTITLE3=Sono Du Wase
TTITLE4=Belluard
TTITLE5=Solotude
TTITLE6=Flight Through The Tunnel
TTITLE7=Siren
TTITLE8=Voressen
TTITLE9=Puls
TTITLE10=Axelstein
EXTD=YEAR: 1994
EXTT0=
EXTT1=
EXTT2=
EXTT3=
EXTT4=
EXTT5=
EXTT6=
EXTT7=
EXTT8=
EXTT9=
EXTT10=
PLAYORDER=
